<!DOCTYPE svg PUBLIC "-//W3C//DTD SVG 1.1//EN" "http://www.w3.org/Graphics/SVG/1.1/DTD/svg11.dtd">
<!-- Uploaded to: SVG Repo, www.svgrepo.com, Transformed by: SVG Repo Mixer Tools -->
<svg width="800px" height="800px" viewBox="0 0 16 16" xmlns="http://www.w3.org/2000/svg" fill="none" stroke="#077fdd" stroke-width="0.00016">
<g id="SVGRepo_bgCarrier" stroke-width="0"/>
<g id="SVGRepo_tracerCarrier" stroke-linecap="round" stroke-linejoin="round" stroke="#CCCCCC" stroke-width="0.032"/>
<g id="SVGRepo_iconCarrier"> <g fill="#077fdd"> <path d="M4 7.75A.75.75 0 014.75 7h3.5a.75.75 0 010 1.5h-3.5A.75.75 0 014 7.75zM4.75 4.5a.75.75 0 000 1.5h6.5a.75.75 0 000-1.5h-6.5z"/> <path fill-rule="evenodd" d="M15 3.25A2.25 2.25 0 0012.75 1h-9.5A2.25 2.25 0 001 3.25v11a.75.75 0 001.26.55l2.801-2.6a.75.75 0 01.51-.2h7.179A2.25 2.25 0 0015 9.75v-6.5zm-2.25-.75a.75.75 0 01.75.75v6.5a.75.75 0 01-.75.75H5.572a2.25 2.25 0 00-1.531.6L2.5 12.53V3.25a.75.75 0 01.75-.75h9.5z" clip-rule="evenodd"/> </g> </g>
</svg>