<!DOCTYPE svg PUBLIC "-//W3C//DTD SVG 1.1//EN" "http://www.w3.org/Graphics/SVG/1.1/DTD/svg11.dtd">
<!-- Uploaded to: SVG Repo, www.svgrepo.com, Transformed by: SVG Repo Mixer Tools -->
<svg width="800px" height="800px" viewBox="0 0 16.00 16.00" xmlns="http://www.w3.org/2000/svg" fill="#000000" class="bi bi-stopwatch" stroke="#000000" stroke-width="0.00016">
<g id="SVGRepo_bgCarrier" stroke-width="0"/>
<g id="SVGRepo_tracerCarrier" stroke-linecap="round" stroke-linejoin="round"/>
<g id="SVGRepo_iconCarrier"> <path d="M8.5 5.6a.5.5 0 1 0-1 0v2.9h-3a.5.5 0 0 0 0 1H8a.5.5 0 0 0 .5-.5V5.6z"/> <path d="M6.5 1A.5.5 0 0 1 7 .5h2a.5.5 0 0 1 0 1v.57c1.36.196 2.594.78 3.584 1.64a.715.715 0 0 1 .012-.013l.354-.354-.354-.353a.5.5 0 0 1 .707-.708l1.414 1.415a.5.5 0 1 1-.707.707l-.353-.354-.354.354a.512.512 0 0 1-.013.012A7 7 0 1 1 7 2.071V1.5a.5.5 0 0 1-.5-.5zM8 3a6 6 0 1 0 .001 12A6 6 0 0 0 8 3z"/> </g>
</svg>