<!DOCTYPE svg PUBLIC "-//W3C//DTD SVG 1.1//EN" "http://www.w3.org/Graphics/SVG/1.1/DTD/svg11.dtd">
<!-- Uploaded to: SVG Repo, www.svgrepo.com, Transformed by: SVG Repo Mixer Tools -->
<svg fill="#ffffff" height="800px" width="800px" version="1.1" id="Layer_1" xmlns="http://www.w3.org/2000/svg" xmlns:xlink="http://www.w3.org/1999/xlink" viewBox="0 0 491.52 491.52" xml:space="preserve">
<g id="SVGRepo_bgCarrier" stroke-width="0"/>
<g id="SVGRepo_tracerCarrier" stroke-linecap="round" stroke-linejoin="round"/>
<g id="SVGRepo_iconCarrier"> <g> <g> <path d="M409.6,40.96h-81.92V20.48C327.68,9.175,318.525,0,307.2,0H184.32c-11.325,0-20.48,9.175-20.48,20.48v20.48H81.92 c-11.325,0-20.48,9.175-20.48,20.48v409.6c0,11.305,9.155,20.48,20.48,20.48H409.6c11.325,0,20.48-9.175,20.48-20.48V61.44 C430.08,50.135,420.925,40.96,409.6,40.96z M204.8,61.44V40.96h81.92v20.48v20.48H204.8V61.44z M307.2,389.12H184.32 c-11.325,0-20.48-9.175-20.48-20.48c0-11.305,9.155-20.48,20.48-20.48H307.2c11.325,0,20.48,9.175,20.48,20.48 C327.68,379.945,318.525,389.12,307.2,389.12z M307.2,307.2H184.32c-11.325,0-20.48-9.175-20.48-20.48 c0-11.305,9.155-20.48,20.48-20.48H307.2c11.325,0,20.48,9.175,20.48,20.48C327.68,298.025,318.525,307.2,307.2,307.2z M307.2,225.28H184.32c-11.325,0-20.48-9.175-20.48-20.48c0-11.305,9.155-20.48,20.48-20.48H307.2 c11.325,0,20.48,9.175,20.48,20.48C327.68,216.105,318.525,225.28,307.2,225.28z"/> </g> </g> </g>
</svg>